<svg width="472" height="187" viewBox="0 0 472 187" fill="none" xmlns="http://www.w3.org/2000/svg">
<g clip-path="url(#clip0)">
<path d="M10.6068 -97.4788H518.67V159.149H10.6068V-97.4788Z" fill="#F0141E"/>
<path d="M404.056 33.2503V7.00622H324.484L311.384 94.648L298.441 7.00622H269.745L272.952 30.4089C269.644 24.4109 257.901 7.00622 232.044 7.00622C231.872 6.99594 203.314 7.00622 203.314 7.00622L203.195 134.751L182.284 7.00622L144.697 6.99594L123.061 139.353L123.073 7.00622H87.0939L74.1283 81.3546L61.4979 7.00622H25.5135V150.901H53.8522V81.5432L66.7444 150.901H81.8074L94.5177 81.5432V150.901H149.145L152.448 128.768H174.441L177.745 150.901L231.381 150.933H231.42V150.901H231.487V104.199L238.055 103.321L251.667 150.933H279.411L279.4 150.901H279.479L261.618 95.1107C270.662 88.9593 280.885 73.3644 278.164 58.4387V58.4335C278.198 58.6272 295.028 150.997 295.028 150.997L328.019 150.903L350.561 20.4856V150.903H404.055V125.026H378.667V92.0312H404.055V65.7597H378.667V33.2503H404.056ZM155.786 105.956L163.573 44.4315L171.641 105.956H155.786ZM238.146 77.5467C235.97 78.509 233.704 78.9906 231.487 78.9957V32.7164C231.521 32.7164 231.573 32.7113 231.629 32.7113C233.839 32.6959 250.386 33.3231 250.386 55.5973C250.386 67.2489 244.76 74.5974 238.146 77.5467ZM461.143 125.002V150.87H408.952V6.98566H437.058V125.002H461.143Z" fill="white"/>
</g>
<defs>
<clipPath id="clip0">
<rect width="472" height="187" fill="white"/>
</clipPath>
</defs>
</svg>
